<svg preserveAspectRatio="none" overflow="visible" style="display: block;" width="16" height="16" viewBox="0 0 16 16" fill="none" xmlns="http://www.w3.org/2000/svg">
<g id="Icons / 16 / Call">
<path id="Vector" d="M1.746 1.136C-0.959 3.589 1.48 8.154 4.662 11.336C7.843 14.517 12.415 16.962 14.868 14.257C15.038 14.069 15.326 13.657 15.73 13.024C15.8722 12.8003 15.9197 12.5292 15.8622 12.2704C15.8046 12.0117 15.6466 11.7863 15.423 11.644L12.987 10.244C12.7687 10.1189 12.5112 10.0808 12.266 10.1371C12.0208 10.1935 11.8058 10.3402 11.664 10.548C11.4773 10.8295 11.2647 11.093 11.029 11.335C9.686 12.672 7.989 11.481 6.253 9.745C4.516 8.008 3.332 6.318 4.669 4.975C4.872 4.771 5.134 4.559 5.455 4.34C5.66308 4.19814 5.80997 3.98299 5.86632 3.73754C5.92268 3.49209 5.88435 3.23442 5.759 3.016L4.36 0.58C4.21749 0.356526 3.99209 0.198769 3.73333 0.141391C3.47457 0.0840136 3.20361 0.13171 2.98 0.274C2.346 0.678 1.935 0.964 1.746 1.136V1.136Z" fill="#0D0D0F"/>
</g>
</svg>
